<svg width="149" height="27" viewBox="0 0 149 27" fill="none" xmlns="http://www.w3.org/2000/svg">
<path d="M147.127 0.362804C146.18 0.443567 145.458 1.24238 145.472 2.19197V24.8067C145.458 25.7565 146.18 26.5557 147.127 26.6365C147.613 26.6665 148.089 26.4945 148.444 26.1611C148.799 25.8278 149 25.3627 149 24.876L149 2.12329C149 1.63649 148.799 1.17132 148.444 0.837946C148.089 0.504569 147.613 0.332616 147.127 0.362804Z" fill="black"/>
<path d="M51.104 0.548508C50.223 0.107463 49.1513 0.464191 48.7104 1.34524L38.8544 21.0402C38.8527 21.0434 38.8494 21.0455 38.8457 21.0455C38.8421 21.0455 38.8387 21.0434 38.8371 21.0402L28.981 1.34524C28.5272 0.489193 27.4729 0.152047 26.6065 0.585885C25.7402 1.01972 25.3786 2.06586 25.7921 2.94208L37.1575 25.6546C37.4598 26.2593 38.078 26.641 38.754 26.6404C38.7843 26.6404 38.8151 26.6368 38.8456 26.6353C38.8761 26.6339 38.9069 26.6404 38.9374 26.6404C39.6134 26.6409 40.2316 26.2592 40.534 25.6546L51.9007 2.94208C52.3416 2.0611 51.9849 0.989517 51.104 0.548508Z" fill="black"/>
<path d="M107.872 0.539419C106.923 0.621008 106.199 1.42148 106.213 2.37311V19.6346C106.213 19.6388 106.211 19.6426 106.207 19.644C106.203 19.6454 106.199 19.644 106.196 19.6405L91.9421 1.05126C91.3832 0.323687 90.3612 0.143606 89.5873 0.636362C89.0693 0.976948 88.7617 1.55887 88.7719 2.17866V24.803C88.7578 25.7545 89.4817 26.555 90.4298 26.6364C90.9167 26.6666 91.3944 26.4942 91.7499 26.1601C92.1054 25.826 92.307 25.3598 92.307 24.872V7.36488C92.3071 7.36089 92.3097 7.35739 92.3134 7.35607C92.3172 7.35475 92.3214 7.3559 92.324 7.35895L106.579 25.9477C107.146 26.6881 108.192 26.8601 108.967 26.3408C109.465 25.9967 109.759 25.4265 109.749 24.8211V2.30387C109.749 1.81628 109.548 1.35008 109.192 1.01591C108.836 0.681601 108.359 0.509237 107.872 0.539419Z" fill="black"/>
<path d="M138.417 0.359427H117.055C116.106 0.345005 115.306 1.06774 115.226 2.01421C115.196 2.49996 115.368 2.9765 115.701 3.33109C116.034 3.68568 116.499 3.88681 116.986 3.88691L125.928 3.88691C125.934 3.88705 125.938 3.89127 125.938 3.89652L125.938 24.8067C125.924 25.7564 126.646 26.5554 127.592 26.6365C128.078 26.6664 128.555 26.4944 128.909 26.161C129.264 25.8277 129.465 25.3627 129.465 24.876V3.89652C129.465 3.89142 129.469 3.8872 129.474 3.88691L138.349 3.88691C139.298 3.90103 140.097 3.17837 140.178 2.23212C140.208 1.74632 140.036 1.26973 139.702 0.915136C139.369 0.560538 138.904 0.35944 138.417 0.359427Z" fill="black"/>
<path d="M15.8615 1.34437C15.5438 0.709889 14.8802 0.324096 14.1717 0.361959C13.4644 0.325699 12.8026 0.711217 12.4852 1.34437L1.11795 24.0578C0.676988 24.9387 1.0337 26.0104 1.91467 26.4513C2.79565 26.8923 3.86729 26.5356 4.30825 25.6546L7.10061 20.0753C7.10215 20.072 7.10546 20.0699 7.10909 20.0699H21.2377C21.2413 20.0699 21.2446 20.072 21.2461 20.0753L24.0385 25.6546C24.4795 26.5355 25.551 26.8922 26.4319 26.4512C27.3128 26.0102 27.6695 24.9387 27.2285 24.0578L15.8615 1.34437ZM8.44903 17.3804L14.1649 5.95941C14.1664 5.95609 14.1697 5.95396 14.1734 5.95396C14.177 5.95396 14.1803 5.95609 14.1819 5.95941L19.898 17.3804C19.8995 17.3833 19.8994 17.3868 19.8976 17.3896C19.8959 17.3924 19.8928 17.394 19.8895 17.394H8.45751C8.45424 17.394 8.45117 17.3924 8.44943 17.3896C8.44769 17.3868 8.44754 17.3833 8.44903 17.3804Z" fill="black"/>
<path d="M83.4092 24.2239C83.3881 24.164 83.3635 24.1054 83.3355 24.0484L72.8681 2.89818C72.3303 1.65524 71.2105 0.760427 69.8795 0.510154C68.5486 0.259881 67.1802 0.686815 66.2277 1.64953L63.6558 6.54635L57.4835 19.5472C56.4643 21.5115 54.8573 22.8122 52.9428 23.2675L62.3939 4.23756C62.4128 4.19884 62.4303 4.15955 62.4465 4.1197C62.6009 3.77243 62.9456 3.54885 63.3257 3.54936C63.3614 3.54997 63.3971 3.55261 63.4325 3.55727L64.987 0.792325C63.9911 0.348265 62.8588 0.321648 61.8432 0.718423C60.8275 1.1152 60.0132 1.90229 59.582 2.90384L49.1036 24.0054C49.0875 24.0356 49.0725 24.0665 49.0584 24.0984C48.8255 24.6138 48.8607 25.2108 49.1524 25.6953C49.4442 26.1799 49.9553 26.4902 50.5198 26.5256C50.805 26.5493 51.0936 26.5612 51.3787 26.5612C55.13 26.5612 58.4504 24.465 60.2595 20.9527C60.2671 20.9378 60.2747 20.9228 60.2818 20.9072L66.1712 8.50072L66.1729 8.49676L66.2252 8.3871L67.9492 4.76522L67.9467 4.75985L68.2061 4.21325C68.217 4.19026 68.2273 4.16718 68.2369 4.14401C68.3862 3.78403 68.7375 3.54935 69.1272 3.54935C69.5169 3.54935 69.8682 3.78403 70.0175 4.14401C70.0302 4.17538 70.0457 4.20647 70.0596 4.23699L79.4773 23.2666C77.5764 22.8099 75.9772 21.5101 74.9595 19.5478L68.7615 6.47625L67.0502 10.1267L72.1607 20.905C72.168 20.9202 72.1756 20.9358 72.1833 20.951C74.0203 24.5155 77.2468 26.5595 81.0383 26.5595C81.3376 26.5595 81.6406 26.5462 81.9387 26.5202C82.1275 26.504 82.3118 26.4532 82.4822 26.3704C83.3114 26.013 83.7178 25.0709 83.409 24.2225" fill="black"/>
</svg>
