<svg width="30" height="30" viewBox="0 0 30 30" fill="none" xmlns="http://www.w3.org/2000/svg">
<path d="M27 12.4545C27 21.3636 15.5 29 15.5 29C15.5 29 4 21.3636 4 12.4545C4 9.41661 5.2116 6.5031 7.36827 4.35496C9.52494 2.20681 12.45 1 15.5 1C18.55 1 21.4751 2.20681 23.6317 4.35496C25.7884 6.5031 27 9.41661 27 12.4545Z" stroke="white" stroke-width="1.81818" stroke-linecap="round" stroke-linejoin="round"/>
<path d="M15 17C17.2091 17 19 15.2091 19 13C19 10.7909 17.2091 9 15 9C12.7909 9 11 10.7909 11 13C11 15.2091 12.7909 17 15 17Z" stroke="white" stroke-width="1.81818" stroke-linecap="round" stroke-linejoin="round"/>
</svg>
